<?xml version="1.0" encoding="utf-8"?>
<!-- Generator: Adobe Illustrator 23.0.2, SVG Export Plug-In . SVG Version: 6.00 Build 0)  -->
<svg version="1.1" id="Layer_1" xmlns="http://www.w3.org/2000/svg" xmlns:xlink="http://www.w3.org/1999/xlink" x="0px" y="0px"
	 viewBox="0 0 496 496" style="enable-background:new 0 0 496 496;" xml:space="preserve">
<style type="text/css">
	.st0{fill:#0F87FF;}
</style>
<path d="M36.9,424H8l8-64l24-16h48l24,16l8,64H91.1l4.9,64H32L36.9,424z"/>
<path d="M72,344H40l-24,16l-8,64h28.9L32,488h48l-4.9-64H104l-8-64L72,344z"/>
<path class="st0" d="M248,336v16l32,136h-40l-24-128l-24,128h-40l32-136v-16h-40l16-80l16-16h80l16,16l16,80H248z"/>
<path class="st0" d="M232,336h40l-16-80l-16-16h-64l-16,16l-16,80h40v16l-32,136h24l24-128l8,42.7l8-42.7l24,128h24l-32-136V336z"/>
<path class="st0" d="M360,280l-24,208h48l16-192l16,192h48l-24-208h48l-16-136l-24-24h-96l-24,24l-16,136H360z"/>
<path class="st0" d="M432,120h-80l-24,24l-16,136h48l-24,208h32l16-192l8,96l8-96l16,192h32l-24-208h48l-16-136L432,120z"/>
<path class="st0" d="M8,248L192,64l24,24V8h-80l24,24L8,184"/>
<path class="st0" d="M8,216L216,8h-80l24,24L8,184"/>
<path d="M88,288c0,13.3-10.7,24-24,24s-24-10.7-24-24c0-13.3,10.7-24,24-24S88,274.7,88,288z"/>
<path d="M72,288c0-12.4-7.2-22.5-16-22.5S40,275.6,40,288s7.2,22.5,16,22.5S72,300.4,72,288z"/>
<path class="st0" d="M248,176c0,17.7-14.3,32-32,32s-32-14.3-32-32c0-17.7,14.3-32,32-32S248,158.3,248,176z"/>
<path class="st0" d="M232,176c0-17.1-10.7-30.9-24-30.9S184,159,184,176s10.7,30.9,24,30.9S232,193.1,232,176z"/>
<path class="st0" d="M440,48c0,22.1-17.9,40-40,40s-40-17.9-40-40c0-22.1,17.9-40,40-40S440,25.9,440,48z"/>
<path class="st0" d="M424,48c0-21.6-14.3-39.2-32-39.2S360,26.4,360,48s14.3,39.2,32,39.2S424,69.6,424,48z"/>
<path class="st0" d="M400,96c-26.5,0-48-21.5-48-48s21.5-48,48-48s48,21.5,48,48S426.5,96,400,96z M400,16c-17.6,0-32,14.4-32,32
	s14.4,32,32,32s32-14.4,32-32S417.7,16,400,16z"/>
<path class="st0" d="M488,288h-48v-16h39l-14.6-124.3L444.7,128h-89.4l-19.7,19.7L321,272h39v16h-48c-2.3,0-4.5-1-6-2.7
	c-1.5-1.7-2.2-4-2-6.2l16-136c0.2-1.8,1-3.5,2.3-4.7l24-24c1.5-1.5,3.5-2.4,5.7-2.4h96c2.1,0,4.2,0.8,5.7,2.3l24,24
	c1.3,1.3,2.1,2.9,2.3,4.7l16,136c0.3,2.3-0.4,4.5-2,6.2C492.5,287,490.3,288,488,288z"/>
<path class="st0" d="M288,344h-40v-16h30.2l-13.6-68.1L252.7,248h-73.4l-11.9,11.9L153.8,328H184v16h-40c-2.4,0-4.7-1.1-6.2-2.9
	c-1.5-1.8-2.1-4.3-1.7-6.6l16-80c0.3-1.5,1.1-3,2.2-4.1l16-16c1.5-1.5,3.5-2.3,5.7-2.3h80c2.1,0,4.2,0.8,5.7,2.3l16,16
	c1.1,1.1,1.9,2.5,2.2,4.1l16,80c0.5,2.4-0.1,4.8-1.7,6.6C292.7,342.9,290.4,344,288,344z"/>
<path d="M120,432H88v-16h22.9l-6.4-51.4L85.6,352H42.4l-18.9,12.6L17.1,416H40v16H8c-2.3,0-4.5-1-6-2.7s-2.2-4-1.9-6.3l8-64
	c0.3-2.3,1.6-4.4,3.5-5.7l24-16c1.3-0.9,2.9-1.3,4.4-1.3h48c1.6,0,3.1,0.5,4.4,1.3l24,16c1.9,1.3,3.2,3.4,3.5,5.7l8,64
	c0.3,2.3-0.4,4.6-1.9,6.3S122.3,432,120,432z"/>
<path class="st0" d="M464,496h-48c-4.2,0-7.6-3.2-8-7.3l-8-96.3l-8,96.3c-0.4,4.1-3.8,7.3-8,7.3h-48c-2.3,0-4.5-1-6-2.7
	s-2.2-4-2-6.2l24-207.6V160h16v120c0,0.3,0,0.6,0,0.9L345,480h31.7L392,295.3c0.4-4.2,3.8-7.3,8-7.3s7.6,3.2,8,7.3L423.4,480H455
	l-23-199.1c0-0.3,0-0.6,0-0.9V160h16v119.5l24,207.5c0.3,2.3-0.5,4.5-2,6.2S466.3,496,464,496z"/>
<path class="st0" d="M216,216c-22.1,0-40-17.9-40-40c0-22.1,17.9-40,40-40s40,17.9,40,40C256,198.1,238.1,216,216,216z M216,152
	c-13.2,0-24,10.8-24,24c0,13.2,10.8,24,24,24s24-10.8,24-24C240,162.8,229.2,152,216,152z"/>
<path class="st0" d="M280,496h-40c-3.8,0-7.2-2.7-7.9-6.5L216,403.4l-16.1,86.1c-0.7,3.8-4,6.5-7.9,6.5h-40c-2.4,0-4.8-1.1-6.3-3
	c-1.5-1.9-2.1-4.4-1.5-6.8L176,351.1V272h16v80c0,0.6-0.1,1.2-0.2,1.8L162.1,480h23.3l22.8-121.5c0.7-3.8,4-6.5,7.9-6.5
	s7.2,2.7,7.9,6.5L246.6,480h23.3l-29.7-126.2c-0.1-0.6-0.2-1.2-0.2-1.8v-80h16v79.1l31.8,135.1c0.6,2.4,0,4.9-1.5,6.8
	C284.8,494.9,282.5,496,280,496z"/>
<path d="M64,320c-17.6,0-32-14.4-32-32s14.4-32,32-32s32,14.4,32,32S81.7,320,64,320z M64,272c-8.8,0-16,7.2-16,16s7.2,16,16,16
	s16-7.2,16-16S72.8,272,64,272z"/>
<path d="M56,432h16v56H56V432z"/>
<path d="M96,496H32c-2.2,0-4.4-0.9-5.9-2.6c-1.5-1.6-2.3-3.8-2.1-6l8-104l16,1.2L40.6,480h46.7L80,384.6l16-1.2l8,104
	c0.2,2.2-0.6,4.4-2.1,6C100.4,495.1,98.2,496,96,496z"/>
<path class="st0" d="M13.7,253.7L2.3,242.3l184-184c3.1-3.1,8.2-3.1,11.3,0L208,68.7V16h-52.7l10.3,10.3c3.1,3.1,3.1,8.2,0,11.3
	l-152,152L2.3,178.3L148.7,32l-18.3-18.3c-2.3-2.3-3-5.7-1.7-8.7c1.2-3,4.2-4.9,7.4-4.9h80c4.4,0,8,3.6,8,8v80c0,3.2-2,6.2-4.9,7.4
	c-3,1.2-6.4,0.6-8.7-1.7L192,75.3L13.7,253.7z"/>
</svg>
