<?xml version="1.0" encoding="utf-8"?>
<!-- Generator: Adobe Illustrator 23.0.2, SVG Export Plug-In . SVG Version: 6.00 Build 0)  -->
<svg version="1.1" id="Capa_1" xmlns="http://www.w3.org/2000/svg" xmlns:xlink="http://www.w3.org/1999/xlink" x="0px" y="0px"
	 viewBox="0 0 495.3 495.3" style="enable-background:new 0 0 495.3 495.3;" xml:space="preserve">
<style type="text/css">
	.st0{fill:#0F87FF;}
	.st1{fill:#010002;}
</style>
<g>
	<g>
		<g>
			<path class="st0" d="M107,101.5L107,101.5c0.1,0,0.7,0,0.9,0v0c27.8-0.3,50.3-22.9,50.3-50.7S135.7,0.3,107.8,0v0
				c-0.1,0-0.7,0-0.9,0v0C79.1,0.3,56.7,22.9,56.7,50.8S79.1,101.2,107,101.5z"/>
			<circle class="st0" cx="392.9" cy="50.8" r="50.8"/>
			<path class="st0" d="M420.1,110.2c-4.6-2.6-9.6-4.5-14.6-5.8l-12.7,12.7l-12.3-12.9c-0.1,0-0.1,0-0.1,0
				c-6.5,1.5-20.6,8.9-21.6,9.5c-39,23.9-56.1,59.2-74,140.9c-1.6,7.3,1.1,14.5,6.4,19.1c1.8,12.4,0.8,21.7-3.1,24.5
				c-7.4,5.2-17.2-3.1-20.6-5.7c-3.9-3-8.4-5.2-13.1-6.3c0,0-0.1,0-0.1,0L247,294l-7.4-7.7c0,0-0.1,0-0.1,0
				c-4.7,1.1-9.2,3.3-13.1,6.3c-3.4,2.6-13.3,10.9-20.6,5.7c-4-2.8-5-12.3-3.1-25c4.1-3.6,6.8-8.8,6.9-14.6
				C215,139,127.1,106.2,120,104.5l-12.6,12.7l-12.6-12.7c-7,1.7-94.9,34.6-89.6,154.2c0.2,10.8,8.9,19.4,19.7,19.4
				c0.1,0,0.2,0,0.3,0c10.9-0.2,19.6-9.1,19.4-20c-0.3-21.4,1.4-38.2,4.6-51.6c0,0,3.1-11.9,6.3-13.5v30.2
				c-5.6,24-28.7,125.3-28.8,140.4c0,7.4,14,12.8,33.6,16v92.4c0,12.9,8.4,23.3,21.3,23.3c12.9,0,23.5-10.4,23.5-23.3l-0.3-89
				c0.2,0,0.3,0,0.5,0c0.2,0,3.6,0,3.8,0v89c0,12.9,10.4,23.3,23.3,23.3c12.9,0,22-10.4,22-23.3v-92.4c19.6-3.2,33.7-8.6,33.6-16
				c-0.1-15.1-23.3-116.4-28.8-140.4V193c3.2,1.6,6.3,13.5,6.3,13.5c3.1,13.4,4.9,30.2,4.6,51.6c-0.1,7.5,4,14.1,10.1,17.5
				c-1.9,18.9,2.1,32.3,12,40c6.2,4.9,13.5,6.4,20.2,6.4c1.1,0,2.2,0,3.3-0.1c0,1.1,0,2.3,0,3.6v46.8c0,3.2,1,8.3,2.1,11.1
				c-0.1,0.6-0.1,98-0.1,98c0,7.7,6.3,14,14,14s14-6.3,14-14v-82.2l0.5,0v0l0.8,0l0.8,0v0l0.5,0v82.2c0,7.7,6.3,14,14,14
				c7.8,0,14-6.3,14-14c0,0,0-97.4-0.1-98c1.1-2.7,2.1-7.9,2.1-11.1v-46.8c0-1.2,0-2.4,0-3.6c1.1,0.1,2.2,0.1,3.3,0.1
				c6.7,0,13.9-1.5,20.2-6.4c9.8-7.7,13.8-21.1,12-39.9c1.2-0.6,2.4-1.2,3.5-2.1c3-2.7,5.3-6.2,6.2-10.5c5.9-26.7,11.4-46.4,17.6-65
				v62.5c0,6,1.3,12.4,3.6,17.4l-0.1,194c0,12.9,10.4,23.3,23.3,23.3c12.9,0,23.3-10.4,23.3-23.3V305.4l3.3,0V472
				c0,12.9,10.4,23.3,23.3,23.3s23.3-10.4,23.3-23.3l0-194c2.5-5.2,4-11,4-17.4v-62.3c0,0,9.8,16.4,5.2,56.2
				c-1.1,10.8,6.8,20.5,17.6,21.6c0.7,0.1,1.3,0.1,2,0.1c10,0,18.6-7.6,19.6-17.7C498.2,169.9,451.3,127.3,420.1,110.2z
				 M392.9,242.4c-3.3,0-5.9-2.6-5.9-5.9c0-3.3,2.6-5.9,5.9-5.9c3.3,0,5.9,2.6,5.9,5.9C398.8,239.7,396.1,242.4,392.9,242.4z
				 M392.9,223.8c-3.3,0-5.9-2.6-5.9-5.9c0-3.3,2.6-5.9,5.9-5.9c3.3,0,5.9,2.6,5.9,5.9C398.8,221.2,396.1,223.8,392.9,223.8z
				 M392.9,206c-3.3,0-5.9-2.6-5.9-5.9s2.6-5.9,5.9-5.9c3.3,0,5.9,2.6,5.9,5.9S396.1,206,392.9,206z M393.9,183l-9.2-50.6l8.2-8
				l8.6,7.9L393.9,183z"/>
			<path class="st0" d="M246,284.5c0.3,0,0.7,0,1,0c0,0,0,0,0,0c0,0,0,0,0,0c0.3,0,0.7,0,1,0c16.4-0.5,29.6-14,29.6-30.6
				c0-16.6-13.2-30-29.6-30.5v0c-0.3,0-0.7,0-1,0c0,0,0,0,0,0c0,0,0,0,0,0c-0.3,0-0.7,0-1,0v0c-16.4,0.5-29.6,13.9-29.6,30.5
				C216.4,270.5,229.6,284,246,284.5z"/>
		</g>
	</g>
	<path class="st1" d="M302.7,276"/>
	<g>
		<g>
			<path class="st1" d="M313.7,276.3c-2.8,1.6-6.1,2.5-9.6,2.5c-4.9,0-9.3-1.8-12.7-4.7c0,0,0,0-0.1,0c0,0,0,0,0,0
				c1.8,12.4,0.8,21.7-3.1,24.5c-7.4,5.2-17.2-3.1-20.7-5.7c-3.9-3-8.4-5.2-13.1-6.3c0,0,0,0-0.1,0l-7.4,7.7l-7.4-7.7
				c0,0-0.1,0-0.1,0c-4.7,1.1-9.2,3.3-13.1,6.3c-3.4,2.6-13.3,10.9-20.6,5.7c-4-2.8-5-12.1-3.1-24.5c-3.5,2.9-8,4.6-12.9,4.6
				c-3.4,0-6.7-0.8-9.5-2.3c-1.8,18.6,2.2,31.9,12,39.5c6.2,4.9,13.5,6.4,20.2,6.4c1.1,0,2.2,0,3.3-0.1c0,1.1-0.1,2.3-0.1,3.6v46.8
				c0,3.2,1,8.3,2.2,11.1c-0.1,0.6-0.1,98-0.1,98c0,7.8,6.3,14,14,14c7.8,0,14-6.3,14-14v-82.1h0.5v0l0.8,0l0.8,0v0h0.5v82.1
				c0,7.8,6.3,14,14,14s14-6.3,14-14c0,0,0-97.4-0.1-98c1.1-2.7,2.1-7.9,2.1-11.1v-46.8c0-1.2,0-2.4,0-3.6c1.1,0.1,2.2,0.1,3.3,0.1
				c6.7,0,13.9-1.5,20.2-6.4C311.5,308.3,315.5,295,313.7,276.3z"/>
			<path class="st1" d="M246,284.9c0.3,0,0.7,0,1,0c0,0,0,0,0,0c0,0,0,0,0,0c0.3,0,0.7,0,1,0c16.4-0.5,29.6-14,29.6-30.6
				c0-16.6-13.2-30-29.6-30.5v0c-0.3,0-0.7,0-1,0c0,0,0,0,0,0c0,0,0,0,0,0c-0.3,0-0.7,0-1,0v0c-16.4,0.5-29.6,13.9-29.6,30.5
				C216.4,270.9,229.6,284.4,246,284.9z"/>
		</g>
	</g>
</g>
<path class="st1" d="M-146.7,328.1L-146.7,328.1z"/>
<path class="st1" d="M-135.7,328.1"/>
</svg>
