<?xml version="1.0" encoding="utf-8"?>
<!-- Generator: Adobe Illustrator 23.0.2, SVG Export Plug-In . SVG Version: 6.00 Build 0)  -->
<svg version="1.1" id="Capa_1" xmlns="http://www.w3.org/2000/svg" xmlns:xlink="http://www.w3.org/1999/xlink" x="0px" y="0px"
	 viewBox="0 0 425.2 425.2" style="enable-background:new 0 0 425.2 425.2;" xml:space="preserve">
<style type="text/css">
	.st0{fill:#0F87FF;}
</style>
<path class="st0" d="M257.9,315.8c-11.3-7.6-108.5-73.8-134.7-120.1l-1.4-2.6l-3-0.1c-22.6-0.9-40.1,12.1-47.6,18.9
	c-3.1-3.1-6.2-6.3-9.4-9.6l-3.8-3.9l-3.8,3.9c-14.8,15.3-21.3,29.6-19.5,42.5c1.5,10.4,8.7,19.5,20.6,26.3
	c2.2,1.2,27.2,18.2,54.4,40c-4.7,4.8-21.8,15.8-28,20.3c-7,4.9-35.9,31.2-35.9,31.2l18.7,4.4l6.5,12.7c0,0,8.9-21.8,18.7-32.5
	s26.8-19.3,26.8-19.3s-9.2,13.2-15.8,25.9c-6.6,12.8-8.3,34.9-8.3,34.9l11.4-3.6l7.9,17.2c0,0,2.1-24.3,7-40.1
	c3.9-12.8,13.5-25,17.1-29.2c34.5,30.4,70.5,67,77.7,74.4c4.3,5,10,8.7,17.3,10.3c2.6,0.6,5.3,0.9,7.9,0.9
	c14.9,0,29.1-9.3,38.2-25.6c10.6-18.9,13.6-48.1-4.8-67.2C267,320.4,262.2,317.4,257.9,315.8z M111.7,299.1
	c-25-19.6-47.7-35.3-51-37.1c-9.2-5.2-14.4-11.5-15.4-18.7c-1.2-8.4,3.1-18.4,12.9-29.6c24.4,25,45.3,44.8,63,60.6
	C113.1,287.2,111.7,294.2,111.7,299.1z M127.2,265.4c-14.1-12.5-30.2-27.7-48.5-46c6.2-5.5,19.9-15.5,36.9-15.9
	c8.9,14.5,23.6,30.5,40.1,45.9C147.1,250.4,136.3,254.1,127.2,265.4z M137.9,320.7c0.9-6.7,3-16,7.7-25.6
	c31,25.3,48.6,34.5,56.4,37.8c-1.2,8.9-3.2,29.4,0.3,48.1C185.6,364.5,161.1,340.8,137.9,320.7z M267.8,387.8
	c-6.6,11.7-19.1,23-34.6,19.6c-26.6-5.9-23.6-57.6-20.2-77.1l0.9-4.9l-4.9-1.1c-0.2-0.1-16.8-4.7-57.7-38.2
	c7.7-8.9,20-12.9,29.4-14.7c23.1,19.2,46.2,35.8,59.9,45.4c-0.4,0.2-0.8,0.4-1.2,0.6c-15.9,9-22.5,35.1-19,47.5
	c4,14.7,13.8,24.1,24.2,23.9c4.4-0.2,15.1-2.6,19.1-22.2l0.6-3.1l-2.4-2c-14.9-12.7-22.9-20.2-26.8-23.9c2.5-4.8,5.7-8.9,9.6-11.1
	c5.9-3.3,12.6-1.1,20,6.5C279.3,348.3,276.6,372.1,267.8,387.8z M252.5,367.4c-1.8,6.7-4.9,10.7-8.4,10.8c0,0-0.1,0-0.2,0
	c-4.4,0-10.5-5.6-13.4-16.2c-0.9-3.4-0.7-8.4,0.6-13.6C235.4,352.5,242.3,358.7,252.5,367.4z"/>
<path d="M83.1,120.1l-16.7,53.4c0,0,68.1,6.6,124.9,24.3c56.8,17.7,116.5,51.1,116.5,51.1l16.9-54.3c0,0-50.9-51.3-111.6-70.3
	C152.6,105.3,83.1,120.1,83.1,120.1z"/>
<path class="st0" d="M425.2,195.3l-19.8-20.8l2-6.3c0,0,17.5-32.1-26.5-26.2c-2.3,0.4-3.7,1.2-4.4,2.1L245.4,6.7L0,60.9l67.5,60.3
	l3.6-11.6c0,0,77.5-16.4,145.1,4.7c67.6,21.1,124.4,78.3,124.4,78.3l-6.3,20.3L385,203c-8.4,27-18.1,58.1-21.2,67.8l-14.4-4.5
	l-10.5,33.5l23.4-7.3l17.2,19.9l10.5-33.5l-15.6-4.9l22.9-73.4L425.2,195.3z M396.1,187.8c-1.7,5.6-7.7,8.7-13.3,7
	c-5.6-1.8-8.7-7.7-7-13.3c1.8-5.6,7.7-8.7,13.3-7C394.8,176.2,397.9,182.2,396.1,187.8z M386.3,154.4c5.5-1.6,14.9-3.3,12.4,4.7
	c-0.3,0.8-0.9,3-2,6.3L386.3,154.4z"/>
</svg>
