<?xml version="1.0" encoding="utf-8"?>
<!-- Generator: Adobe Illustrator 23.0.2, SVG Export Plug-In . SVG Version: 6.00 Build 0)  -->
<svg version="1.1" id="Layer_1" xmlns="http://www.w3.org/2000/svg" xmlns:xlink="http://www.w3.org/1999/xlink" x="0px" y="0px"
	 viewBox="0 0 512 512" style="enable-background:new 0 0 512 512;" xml:space="preserve">
<style type="text/css">
	.st0{fill:#0F87FF;}
</style>
<g>
	<g>
		<polygon points="138.7,137 132.3,137 120.3,197 150.7,197 		"/>
	</g>
</g>
<g>
	<g>
		<path class="st0" d="M381.4,257c6.5,17.4,15.1,31.5,24.6,43.5c9.5-12,19.1-26.1,25.6-43.5H381.4z"/>
	</g>
</g>
<g>
	<g>
		<path class="st0" d="M467,91H280.7l38.8,311.7c0.7,12.7-2.8,24.8-11.1,34.1L242.7,512H467c24.8,0,45-20.2,45-45V137
			C512,112.2,491.8,91,467,91z M467,257h-4c-8.5,27.4-22.1,48.8-36.1,65.7c11,10.1,22.8,18.3,34.5,27.6c6.5,5.2,7.5,14.6,2.3,21.1
			c-5.2,6.5-14.6,7.5-21.1,2.3c-12.7-10-24.7-18.5-36.6-29.4c-11.9,11-22.9,19.4-35.6,29.4c-6.4,5.2-15.9,4.1-21.1-2.3
			c-5.2-6.5-4.1-15.9,2.3-21.1c11.7-9.3,22.5-17.5,33.5-27.6c-14.1-16.9-26.6-38.3-35.1-65.7h-4c-8.3,0-15-6.7-15-15s6.7-15,15-15
			h45v-15c0-8.3,6.7-15,15-15c8.3,0,15,6.7,15,15v15h46c8.3,0,15,6.7,15,15S475.3,257,467,257z"/>
	</g>
</g>
<g>
	<g>
		<path d="M244.2,39.4C241.4,16.9,222.2,0,199.5,0H45C20.2,0,0,20.2,0,45v332c0,24.8,20.2,45,45,45c89.7,0,154.2,0,236.6,0
			c4.4-5,8-8.1,8.2-14.7C289.8,405.7,244.4,41,244.2,39.4z M183.9,286.7c-8,1.6-16-3.5-17.7-11.8l-9.6-47.9h-42.4l-9.6,47.9
			c-1.6,8.1-9.4,13.4-17.7,11.8c-8.1-1.6-13.4-9.5-11.8-17.7l30-150c1.4-7,7.6-12.1,14.7-12.1h31c7.1,0,13.3,5.1,14.7,12.1l30,150
			C197.3,277.2,192.1,285.1,183.9,286.7z"/>
	</g>
</g>
<g>
	<g>
		<path class="st0" d="M175.3,452l2.6,20.6c1.7,13.8,10.9,27.8,25.9,34.9c28.4-31.3,11.2-12.4,50.4-55.4L175.3,452L175.3,452z"/>
	</g>
</g>
</svg>
