<?xml version="1.0" encoding="utf-8"?>
<!-- Generator: Adobe Illustrator 23.0.2, SVG Export Plug-In . SVG Version: 6.00 Build 0)  -->
<svg version="1.1" id="Layer_1" xmlns="http://www.w3.org/2000/svg" xmlns:xlink="http://www.w3.org/1999/xlink" x="0px" y="0px"
	 viewBox="0 0 1296 1023" style="enable-background:new 0 0 1296 1023;" xml:space="preserve">
<style type="text/css">
	.st0{fill:#4D9EFF;}
	.st1{fill:#FFFFFF;}
	.st2{fill:#EF6100;}
	.st3{fill:#FFBA31;}
	.st4{fill:#D80067;}
	.st5{fill-rule:evenodd;clip-rule:evenodd;fill:#008CFF;}
	.st6{fill:#008CFF;}
</style>
<path class="st5" d="M712.7,132.4H581.3c-14.1,0-25.7,11.5-25.7,25.7v76c1.6-1,3.4-1.6,5.4-1.7c3.6-0.1,7.9,0,12.2,0.3
	c4,0.3,8.3,0.7,11.8,1c6.1,0.6,10.5,6,9.9,12.1c-0.6,6.1-6,10.5-12.1,9.9c-3.1-0.3-6.9-0.7-10.9-1c-3.8-0.3-7.4-0.4-10-0.3
	c-2.3,0.1-4.5-0.5-6.3-1.7v167.2c3.5,0.6,6.7,2.5,8.8,5.7c9.6,15,21.6,27.7,36.4,36.3c8.3,4.8,17.7,8.4,28.1,10.3
	c5.7,1.1,11.7,1.6,18.1,1.6c6.4,0,12.4-0.5,18.1-1.6c10.4-1.9,19.7-5.4,28.1-10.3c14.8-8.6,26.8-21.3,36.4-36.3
	c2.1-3.2,5.3-5.2,8.7-5.7v-59.3h-43.6c-4.2,0-7.5-3.4-7.5-7.5c0-4.2,3.4-7.5,7.5-7.5h43.6v-92.8c-1.8,1.2-4,1.8-6.3,1.7
	c-2.6-0.1-6.2,0-9.9,0.3c-4,0.3-7.8,0.6-10.9,1c-6.1,0.6-11.5-3.8-12.1-9.9c-0.6-6.1,3.8-11.5,9.9-12.1c3.5-0.4,7.7-0.8,11.8-1
	c4.3-0.3,8.6-0.4,12.2-0.3c2,0.1,3.8,0.7,5.4,1.7v-76C738.3,143.9,726.8,132.4,712.7,132.4z M723.2,472.1c-5.3,4.5-11,8.5-17.1,12
	c-14.9,8.6-32,14.1-51.5,15.2v61.4c14.3,3.4,24.9,16.3,24.9,31.6c0,17.9-14.5,32.5-32.5,32.5s-32.5-14.5-32.5-32.5
	c0-15.3,10.6-28.2,24.9-31.6v-61.4c-19.5-1.1-36.7-6.5-51.5-15.2c-6.1-3.5-11.8-7.6-17.1-12c-5.5-4.6-10.6-9.7-15.2-15.2v146.6
	c0,14.1,11.5,25.7,25.7,25.7h131.4c14.1,0,25.7-11.5,25.7-25.7V457C733.7,462.4,728.6,467.5,723.2,472.1z"/>
<path class="st5" d="M570.9,472.1H424.3c-14.1,0-25.7-11.5-25.7-25.7V315.1c0-14.1,11.5-25.7,25.7-25.7h88.8
	c-0.2,3.3-0.3,6.8-0.3,10.4c0,20.2,2.6,44.7,8.7,69.3c4.8,19.3,11.8,38.8,21.4,56.3c-2.8,4.1-3,9.7-0.1,14.1
	c3.9,6.1,8.2,12,12.9,17.4C560.3,462.4,565.4,467.5,570.9,472.1z"/>
<path class="st5" d="M770,289.4H524.1c-0.2,3.3-0.2,6.8-0.2,10.4c0,19.5,2.5,43,8.3,66.7c4.5,18.3,11.1,36.7,20.2,53.2
	c1.1-0.1,2.2-0.1,3.3,0.1c3.5,0.6,6.7,2.5,8.8,5.7c9.6,15,21.6,27.7,36.4,36.3c8.3,4.8,17.7,8.4,28.1,10.3h36.2
	c10.4-1.9,19.7-5.4,28.1-10.3c14.8-8.6,26.8-21.3,36.4-36.3c2.1-3.2,5.3-5.2,8.7-5.7c1.1-0.2,2.2-0.2,3.3-0.1
	c7.8-14.2,13.7-29.8,18.2-45.6c7.2-25.6,10.2-51.5,10.4-72.8C770.2,297.2,770.1,293.2,770,289.4z M694.8,345.5h43.6
	c4.2,0,7.5,3.4,7.5,7.5c0,4.2-3.4,7.5-7.5,7.5h-43.6c-4.2,0-7.5-3.4-7.5-7.5C687.2,348.8,690.6,345.5,694.8,345.5z"/>
<path class="st5" d="M895.4,315.1v131.4c0,14.1-11.5,25.7-25.7,25.7H723.2c5.5-4.6,10.5-9.7,15.2-15.2c4.7-5.5,9-11.3,13-17.5
	c2.9-4.4,2.6-10-0.1-14.1c8.3-15.1,14.6-31.6,19.3-48.2c7.4-26.5,10.6-53.5,10.7-75.7c0-4.2-0.1-8.2-0.3-12h88.8
	C883.8,289.4,895.4,301,895.4,315.1z"/>
<path class="st5" d="M793.3,311.9c-0.2,26.2-4.1,53.6-11.2,78.8c-4.3,15.5-10.1,31-17.6,45.6c1.8,6.6,0.9,13.9-3,20.1
	c-3.5,5.4-7.3,10.7-11.3,15.7c-3.7,4.5-7.6,8.9-11.8,12.9c-7.8,7.6-16.6,14.4-26.2,20c-17.8,10.3-37.2,15.8-57.6,16.8v-22.5
	c19.6-1.1,36.7-6.6,51.5-15.2c6.1-3.5,11.8-7.5,17.1-12c5.5-4.6,10.5-9.7,15.2-15.2c4.7-5.5,9-11.3,13-17.5c2.9-4.4,2.6-10-0.1-14.1
	c8.3-15.1,14.6-31.6,19.3-48.2c7.4-26.5,10.6-53.5,10.7-75.7c0-4.2-0.1-8.2-0.3-12c-1.1-21.1-5.5-36.5-11.9-40.8
	c-5.2-3.5-10.9-6-16.5-7.7c-3.4-1-6.8-1.7-10-2.2c-0.9-2-2.4-3.6-4.2-4.7c-1.6-1-3.4-1.6-5.4-1.7c-3.6-0.1-7.9,0-12.2,0.3
	c-4,0.3-8.3,0.7-11.8,1c-6.1,0.6-10.5,6-9.9,12.1c0.6,6.1,6,10.5,12.1,9.9c3.1-0.3,6.9-0.7,10.9-1c3.8-0.3,7.4-0.4,9.9-0.3
	c2.3,0.1,4.5-0.5,6.3-1.7l3.1-2.9c2.6,0.4,5.3,1,8,1.8c4.6,1.4,9.2,3.3,13.4,6.2c3.7,2.6,6.4,14.5,7.1,31.7c0.2,3.8,0.2,7.8,0.2,12
	c-0.1,21.2-3.2,47.2-10.4,72.8c-4.4,15.8-10.4,31.4-18.2,45.6c-1.1-0.1-2.2-0.1-3.3,0.1c-3.5,0.6-6.7,2.5-8.7,5.7
	c-9.6,15-21.6,27.7-36.4,36.3c-8.4,4.8-17.7,8.4-28.1,10.3c-5.7,1.1-11.7,1.6-18.1,1.6c-6.4,0-12.4-0.5-18.1-1.6
	c-10.4-1.9-19.7-5.4-28.1-10.3c-14.8-8.6-26.8-21.3-36.4-36.3c-2.1-3.2-5.3-5.2-8.8-5.7c-1.1-0.2-2.2-0.2-3.3-0.1
	c-9.1-16.5-15.6-34.9-20.2-53.2c-5.9-23.6-8.3-47.2-8.3-66.7c0-3.6,0.1-7.1,0.2-10.4c0.7-17.2,3.4-29.1,7.1-31.7
	c4.2-2.9,8.8-4.8,13.4-6.2c2.7-0.8,5.4-1.4,8-1.8l3.1,2.9c1.8,1.2,4,1.8,6.3,1.7c2.6-0.1,6.2,0,10,0.3c4,0.3,7.8,0.6,10.9,1
	c6.1,0.6,11.5-3.8,12.1-9.9c0.6-6.1-3.8-11.5-9.9-12.1c-3.5-0.4-7.7-0.8-11.8-1c-4.3-0.3-8.6-0.4-12.2-0.3c-2,0.1-3.9,0.7-5.4,1.7
	c-1.8,1.1-3.3,2.8-4.1,4.7c-3.3,0.5-6.7,1.2-10,2.2c-5.7,1.7-11.3,4.1-16.5,7.7c-6.4,4.4-10.8,19.8-11.9,40.8
	c-0.2,3.3-0.3,6.8-0.3,10.4c0,20.2,2.6,44.7,8.7,69.3c4.8,19.3,11.8,38.8,21.4,56.3c-2.8,4.1-3,9.7-0.1,14.1
	c3.9,6.1,8.2,12,12.9,17.4c4.7,5.5,9.7,10.6,15.2,15.2c5.3,4.5,11,8.5,17.1,12c14.9,8.6,32,14.1,51.5,15.2v22.5
	c-20.3-1.1-39.7-6.5-57.6-16.8c-9.7-5.6-18.4-12.3-26.2-20c-4.2-4-8.1-8.4-11.7-12.9c-4.1-5-7.8-10.2-11.3-15.7
	c-4-6.2-4.8-13.4-3.1-20c-8.8-17.1-15.2-35.6-19.8-54c-5.8-23.3-9-48.2-9-72.2c0-5.6,0.2-13,1-20.8c1.7-15.8,5.9-33.2,16.4-40.4
	c6.1-4.2,12.9-7.2,19.9-9.3c2.1-0.6,4.3-1.2,6.4-1.6c2.9-3.2,6.8-5.6,11.1-6.7c1.6-0.4,3.3-0.7,5-0.7c4.5-0.2,9,0,13.5,0.3
	c4.1,0.3,8.1,0.7,12.2,1.1c12.6,1.3,21.9,12.7,20.6,25.3c-1.3,12.6-12.7,21.9-25.4,20.6c-3.5-0.4-7-0.7-10.5-0.9
	c-2.8-0.2-5.9-0.4-8.7-0.3c-2.4,0.1-4.6-0.2-6.8-0.7c-2.4-0.6-4.6-1.6-6.6-2.9c-0.4,0.1-0.7,0.2-1.1,0.3c-3,0.9-6,2.1-8.6,3.7
	c-1.1,2.6-1.9,7.2-2.4,12.2c-0.8,8-1,17-1,20.8c0,21.2,2.9,43.2,8,63.8c2.9,11.9,6.8,23.9,11.7,35.3c1.4,3.2,2.9,6.4,4.5,9.6
	c5.8,1.6,11,5.2,14.5,10.6c8.3,12.9,18.9,24.6,32.3,32.3c12.3,7.2,25.9,10.2,40.1,10.2c14.2,0,27.8-3.1,40.1-10.2
	c13.4-7.8,24-19.4,32.3-32.3c3.5-5.4,8.7-9,14.5-10.6c1.6-3.1,3-6.3,4.4-9.5c4-9.2,7.2-18.7,9.8-28.1c6.2-22.2,9.8-46.5,9.9-69.6
	c0-4-0.1-13.9-1-22.3c-0.5-5-1.3-9.6-2.4-12.2c-2.7-1.6-5.6-2.8-8.7-3.7c-0.4-0.1-0.7-0.2-1.1-0.3c-2,1.3-4.2,2.3-6.6,2.9
	c-2.2,0.6-4.4,0.8-6.8,0.7c-2.8-0.1-5.9,0.1-8.7,0.3c-3.5,0.2-7,0.5-10.5,0.9c-12.6,1.3-24.1-8-25.4-20.6c-1.3-12.6,8-24,20.6-25.3
	c4.1-0.4,8.1-0.8,12.2-1.1c4.5-0.3,9-0.5,13.5-0.3c1.7,0.1,3.4,0.3,5,0.7c4.4,1.1,8.2,3.5,11.2,6.7c2.2,0.5,4.3,1,6.4,1.6
	c7.1,2.1,13.8,5.1,19.9,9.3c10.3,7.1,14.6,24.4,16.3,40.4C793.1,297.9,793.3,306,793.3,311.9z"/>
<path class="st6" d="M552.6,249.8c0.8,1.2,1.9,2.2,3.1,2.9L552.6,249.8z M738.3,252.7c1.2-0.7,2.3-1.7,3.1-2.9L738.3,252.7z"/>
<path class="st5" d="M871.7,156.1C814.2,98.6,734.7,63,647,63s-167.2,35.6-224.7,93.1c-57.5,57.5-93.1,136.9-93.1,224.7
	s35.6,167.2,93.1,224.7c57.5,57.5,136.9,93.1,224.7,93.1s167.2-35.6,224.7-93.1c57.5-57.5,93.1-136.9,93.1-224.7
	S929.2,213.6,871.7,156.1z M849.8,583.5c-51.9,51.9-123.6,84-202.8,84s-150.9-32.1-202.8-84c-51.9-51.9-84-123.6-84-202.8
	c0-79.2,32.1-150.9,84-202.8c51.9-51.9,123.6-84,202.8-84s150.9,32.1,202.8,84c51.9,51.9,84,123.6,84,202.8
	C933.7,459.9,901.7,531.6,849.8,583.5z"/>
<g>
	<path class="st6" d="M51.3,880.9v-86.5h28.5v85.4c0,31.5,14.2,45.1,39,45.1s38.8-13.6,38.8-45.1v-85.4h28v86.5
		c0,44.7-25.2,69-67,69C76.4,949.8,51.3,925.5,51.3,880.9z"/>
	<path class="st6" d="M344.4,923.6v24.1H213.7v-19l90.2-110.1h-88.7v-24.1h126.3v19l-90.2,110.1H344.4z"/>
	<path class="st6" d="M506.7,794.4v153.3h-28.5V882h-79.3v65.7h-28.5V794.4h28.5v63.3h79.3v-63.3H506.7z"/>
	<path class="st6" d="M662.8,923.8v23.9H547.8V794.4h111.9v23.9h-83.4v39.8h74v23.4h-74v42.3H662.8z"/>
	<path class="st6" d="M793.9,912.2h-76.6l-15.1,35.5h-29.3l69-153.3h28L839,947.6h-29.8L793.9,912.2z M784.5,889.8l-28.9-67
		l-28.7,67H784.5z"/>
	<path class="st6" d="M858.5,794.4H887v129.2h80.1v24.1H858.5V794.4z"/>
	<path class="st6" d="M1006.5,818.5h-50.8v-24.1h130.1v24.1H1035v129.2h-28.5V818.5z"/>
	<path class="st6" d="M1243.4,794.4v153.3H1215V882h-79.3v65.7h-28.5V794.4h28.5v63.3h79.3v-63.3H1243.4z"/>
</g>
</svg>
