<?xml version="1.0" encoding="utf-8"?>
<!-- Generator: Adobe Illustrator 21.0.0, SVG Export Plug-In . SVG Version: 6.00 Build 0)  -->
<svg version="1.1" id="Layer_1" xmlns="http://www.w3.org/2000/svg" xmlns:xlink="http://www.w3.org/1999/xlink" x="0px" y="0px"
	 viewBox="0 0 800 600" style="enable-background:new 0 0 800 600;" xml:space="preserve">
<style type="text/css">
	.st0{fill:#0f87ff;}
	.st1{fill:#0f87ff;}
	.st2{fill:#0f87ff;stroke:#0f87ff;stroke-width:2;stroke-miterlimit:10;}
</style>
<g>
	<g>
		<g>
			<path class="st0" d="M454.2,234.8c-12.5,12.2-29,19-46.4,19h-1c-17.7-0.2-34.2-7.4-46.5-20.1c-12.3-12.7-19-29.5-18.7-47.1
				c0.2-17.5,7.3-34,19.7-46.2c12.5-12.3,28.9-19.1,46.4-19.1h1c17.7,0.3,34.2,7.4,46.5,20.1c1.5,1.5,2.8,3,4.1,4.6h35
				c-15.3-31.8-47.6-53.9-85.2-54.5h-1.5c-52.4,0-95.2,42.1-96,94.6c-0.7,53,41.5,96.7,94.6,97.4c0.5,0,1,0.1,1.5,0.1
				c38.1,0,71.1-22.3,86.6-54.5h-35C457.8,231.1,456,232.9,454.2,234.8z"/>
		</g>
	</g>
	<path class="st0" d="M274.3,279.2l0-91h0c0-0.1,0-0.2,0-0.3c0.3-17.7-6.4-34.4-18.7-47.1c-12.3-12.7-28.9-19.8-46.6-20.1
		c-0.3,0-0.7,0-1,0c-17.5,0-34,6.8-46.4,19c-12.5,12.3-19.5,28.7-19.8,46.2c0,0.8,0,1.6,0,2.3h0l0,91H112v-91h0c0-0.9,0-1.8,0-2.8
		c0.8-52.5,43.6-94.6,96-94.6c0.5,0,1,0,1.5,0c53,0.8,95.3,44.4,94.6,97.3l0,91H274.3z"/>
	<path class="st0" d="M658.2,76.3v41c-16.8-16.1-39.6-26.1-64.8-26.5h-1.5c-52.4,0-95.2,42.1-96,94.6c-0.8,53,41.5,96.7,94.6,97.4
		c0.4,0,1,0.1,1.5,0.1c52.3,0,95.2-42.1,95.9-94.6c0.1-1,0.1-1.9,0-2.8h0.1V76.3H658.2z M638.4,234.1c-12.5,12.2-29,19-46.4,19h-1
		c-17.7-0.2-34.2-7.4-46.6-20.1c-12.3-12.7-18.9-29.5-18.7-47.1c0.3-17.5,7.3-33.9,19.8-46.2c12.5-12.3,28.9-19.1,46.4-19.1h1
		c17.7,0.3,34.2,7.4,46.5,20.1c12.3,12.8,19,29.5,18.7,47.2C658,205.4,650.9,221.8,638.4,234.1z"/>
</g>
<image style="overflow:visible;" width="1920" height="1080" xlink:href="45F0CE20.jpg"  transform="matrix(1 0 0 1 1403.0972 766.9438)">
</image>
<g>
	<g>
		<path class="st1" d="M148.6,351.9V393h-6.3l-22.7-27.9V393h-7.6v-41.2h6.3l22.7,27.9v-27.9H148.6z"/>
		<path class="st1" d="M186.4,383.5h-20.6l-4.1,9.5h-7.9l18.5-41.2h7.5l18.6,41.2h-8L186.4,383.5z M183.9,377.5l-7.8-18l-7.7,18
			H183.9z"/>
		<path class="st1" d="M210,358.3h-13.6v-6.5h34.9v6.5h-13.6V393H210V358.3z"/>
		<path class="st1" d="M237.1,351.9h7.6V393h-7.6V351.9z"/>
		<path class="st1" d="M252.9,372.4c0-12.2,9.4-21.2,22.2-21.2s22.2,8.9,22.2,21.2s-9.4,21.2-22.2,21.2S252.9,384.6,252.9,372.4z
			 M289.5,372.4c0-8.4-6.2-14.5-14.5-14.5s-14.5,6.1-14.5,14.5s6.2,14.5,14.5,14.5S289.5,380.8,289.5,372.4z"/>
		<path class="st1" d="M341.9,351.9V393h-6.3l-22.7-27.9V393h-7.6v-41.2h6.3l22.7,27.9v-27.9H341.9z"/>
		<path class="st1" d="M379.6,383.5H359L355,393h-7.9l18.5-41.2h7.5l18.6,41.2h-8L379.6,383.5z M377.1,377.5l-7.8-18l-7.7,18H377.1z
			"/>
		<path class="st1" d="M397,351.9h7.6v34.7h21.5v6.5H397V351.9z"/>
		<path class="st1" d="M445.5,372.4c0-12.3,9.4-21.2,22-21.2c6.7,0,12.5,2.4,16.3,6.9l-4.9,4.6c-3-3.2-6.7-4.8-11-4.8
			c-8.5,0-14.7,6-14.7,14.5s6.2,14.5,14.7,14.5c4.3,0,8-1.6,11-4.9l4.9,4.7c-3.8,4.5-9.6,6.9-16.3,6.9
			C454.9,393.6,445.5,384.7,445.5,372.4z"/>
		<path class="st1" d="M522,386.6v6.4h-30.9v-41.2h30v6.4h-22.4V369h19.9v6.3h-19.9v11.3H522z"/>
		<path class="st1" d="M567.1,351.9V393h-6.3l-22.7-27.9V393h-7.6v-41.2h6.3l22.7,27.9v-27.9H567.1z"/>
		<path class="st1" d="M586.5,358.3h-13.6v-6.5h34.9v6.5h-13.6V393h-7.6V358.3z"/>
		<path class="st1" d="M644.4,386.6v6.4h-30.9v-41.2h30v6.4h-22.4V369H641v6.3h-19.9v11.3H644.4z"/>
		<path class="st1" d="M679.8,393l-8.4-12.1c-0.5,0.1-1.1,0.1-1.6,0.1h-9.3v12h-7.6v-41.2h16.9c10.8,0,17.5,5.5,17.5,14.6
			c0,6.2-3.2,10.8-8.8,13l9.5,13.5H679.8z M669.5,358.3h-8.9v16.4h8.9c6.7,0,10.2-3.1,10.2-8.2C679.7,361.3,676.2,358.3,669.5,358.3
			z"/>
		<path class="st1" d="M102.1,428.8v12.5H122v6.5h-19.9v15.8h-7.6v-41.2h30v6.4H102.1z"/>
		<path class="st1" d="M128.5,443c0-12.2,9.4-21.2,22.2-21.2s22.2,8.9,22.2,21.2s-9.4,21.2-22.2,21.2S128.5,455.1,128.5,443z
			 M165.2,443c0-8.4-6.2-14.5-14.5-14.5s-14.5,6.1-14.5,14.5s6.2,14.5,14.5,14.5S165.2,451.4,165.2,443z"/>
		<path class="st1" d="M207.9,463.6l-8.4-12.1c-0.5,0.1-1.1,0.1-1.6,0.1h-9.3v12H181v-41.2h16.9c10.8,0,17.5,5.5,17.5,14.6
			c0,6.2-3.2,10.8-8.8,13l9.5,13.5H207.9z M197.6,428.9h-8.9v16.4h8.9c6.7,0,10.2-3.1,10.2-8.2C207.7,431.9,204.3,428.9,197.6,428.9
			z"/>
		<path class="st1" d="M240.2,422.4h18c13.3,0,22.5,8.2,22.5,20.6s-9.1,20.6-22.5,20.6h-18V422.4z M257.8,457.1
			c9.2,0,15.1-5.6,15.1-14.1c0-8.5-5.9-14.1-15.1-14.1h-10v28.2H257.8z"/>
		<path class="st1" d="M319.6,457.1v6.4h-30.9v-41.2h30v6.4h-22.4v10.7h19.9v6.3h-19.9v11.3H319.6z"/>
		<path class="st1" d="M365.2,422.4l-17.9,41.2h-7.5l-18-41.2h8.3l13.7,31.7l13.8-31.7H365.2z"/>
		<path class="st1" d="M400.4,457.1v6.4h-30.9v-41.2h30v6.4h-22.4v10.7H397v6.3h-19.9v11.3H400.4z"/>
		<path class="st1" d="M408.9,422.4h7.6v34.7H438v6.5h-29.2V422.4z"/>
		<path class="st1" d="M440.4,443c0-12.2,9.4-21.2,22.2-21.2c12.8,0,22.2,8.9,22.2,21.2s-9.4,21.2-22.2,21.2
			C449.8,464.1,440.4,455.1,440.4,443z M477,443c0-8.4-6.2-14.5-14.5-14.5c-8.3,0-14.5,6.1-14.5,14.5s6.2,14.5,14.5,14.5
			C470.9,457.4,477,451.4,477,443z"/>
		<path class="st1" d="M527.3,437c0,9.1-6.7,14.6-17.5,14.6h-9.3v11.9h-7.6v-41.2h16.9C520.6,422.4,527.3,427.9,527.3,437z
			 M519.6,437c0-5.2-3.5-8.2-10.2-8.2h-8.9v16.3h8.9C516.1,445.2,519.6,442.2,519.6,437z"/>
		<path class="st1" d="M572.7,463.6l-0.1-27.3l-13.5,22.6h-3.4l-13.5-22.2v26.9h-7.3v-41.2h6.3l16.3,27.3l16.1-27.3h6.3l0.1,41.2
			H572.7z"/>
		<path class="st1" d="M621.9,457.1v6.4h-30.9v-41.2h30v6.4h-22.4v10.7h19.9v6.3h-19.9v11.3H621.9z"/>
		<path class="st1" d="M667,422.4v41.2h-6.3L638,435.7v27.9h-7.6v-41.2h6.3l22.7,27.9v-27.9H667z"/>
		<path class="st1" d="M686.4,428.9h-13.6v-6.5h34.9v6.5h-13.6v34.7h-7.6V428.9z"/>
	</g>
</g>
<line class="st2" x1="113" y1="317.5" x2="688.9" y2="317.5"/>
<g>
</g>
<g>
</g>
<g>
</g>
<g>
</g>
<g>
</g>
</svg>
