<?xml version="1.0" encoding="utf-8"?>
<!-- Generator: Adobe Illustrator 21.0.0, SVG Export Plug-In . SVG Version: 6.00 Build 0)  -->
<svg version="1.1" id="Capa_1" xmlns="http://www.w3.org/2000/svg" xmlns:xlink="http://www.w3.org/1999/xlink" x="0px" y="0px"
	 width="33px" height="33px" viewBox="0 0 33 33" style="enable-background:new 0 0 33 33;" xml:space="preserve">
<style type="text/css">
	.st0{fill:#0f87ff;stroke:#0f87ff;stroke-width:0.5;stroke-miterlimit:10;}
</style>
<g>
	<path class="st0" d="M16.5,33C7.4,33,0,25.6,0,16.5S7.4,0,16.5,0S33,7.4,33,16.5S25.6,33,16.5,33z M16.5,1C8,1,1,8,1,16.5
		S8,32,16.5,32S32,25,32,16.5S25,1,16.5,1z"/>
	<path class="st0" d="M16.5,33c-3.4,0-6.7-1.1-9.5-3.1c-0.2-0.1-0.2-0.3-0.2-0.5s0.1-0.3,0.3-0.4c4.1-1.5,4.8-2.8,4.8-5.2
		c0-0.6-0.1-0.8-0.4-1.2c-0.3-0.5-0.8-1.2-1.1-2.9c0-0.3-0.1-0.3-0.3-0.4c-0.6-0.3-1.2-0.7-1.3-2.6c0-0.9,0.3-1.4,0.6-1.7
		c-0.1-0.3-0.2-0.9-0.2-1.5c-0.5-2.8-0.5-6.2,3.4-7.8c3.4-1.4,6.1-0.6,7,0.3c0.6,0,2.2,0.2,3.2,1.4c1.7,1.9,1.1,6.4,1,7.6
		c0.3,0.3,0.6,0.8,0.6,1.7c-0.1,2-0.7,2.4-1.3,2.7c-0.2,0.1-0.3,0.1-0.3,0.4c-0.3,1.8-0.8,2.4-1.1,2.9c-0.3,0.4-0.4,0.6-0.4,1.2
		c0,2.4,0.7,3.6,4.8,5.2c0.2,0.1,0.3,0.2,0.3,0.4s-0.1,0.4-0.2,0.5C23.2,31.9,19.9,33,16.5,33z M8.3,29.7c2.5,1.5,5.3,2.3,8.2,2.3
		s5.7-0.8,8.2-2.3c-3.5-1.4-4.6-2.9-4.6-5.8c0-0.9,0.3-1.3,0.6-1.8c0.3-0.4,0.7-1,1-2.6c0.1-0.8,0.6-1,0.9-1.1
		c0.3-0.1,0.6-0.3,0.7-1.8c0-0.8-0.3-1-0.4-1c-0.2-0.1-0.3-0.3-0.3-0.5c0.2-1.3,0.7-5.5-0.7-7C21.1,7,19.6,7,19.3,7c0,0-0.1,0-0.1,0
		c-0.1,0-0.4-0.1-0.4-0.3c-0.3-0.5-2.6-1.4-5.9-0.1c-3.2,1.3-3.2,4.1-2.8,6.7c0.1,1,0.3,1.8,0.3,1.8c0,0.2-0.1,0.4-0.3,0.5l0,0
		c0,0-0.3,0.2-0.3,1c0.1,1.5,0.4,1.6,0.7,1.8c0.3,0.1,0.7,0.3,0.9,1.1c0.3,1.6,0.7,2.1,1,2.6c0.3,0.4,0.6,0.8,0.6,1.8
		C12.9,26.8,11.8,28.2,8.3,29.7z"/>
</g>
</svg>
