<?xml version="1.0" encoding="utf-8"?>
<!-- Generator: Adobe Illustrator 23.0.2, SVG Export Plug-In . SVG Version: 6.00 Build 0)  -->
<svg version="1.1" id="Capa_1" xmlns="http://www.w3.org/2000/svg" xmlns:xlink="http://www.w3.org/1999/xlink" x="0px" y="0px"
	 viewBox="0 0 512 512" style="enable-background:new 0 0 512 512;" xml:space="preserve">
<style type="text/css">
	.st0{fill:#0F87FF;}
</style>
<path class="st0" d="M44.8,512h422.3c0-105.4-40-163.3-100.1-190.4l-84,65.5l-28.2-42.8l-26.5,42.9l-84.9-65
	C84.2,349.6,44.8,406.6,44.8,512z M343,385.9l26.7,26.2l26.7-26.2c0,0,14.4,27.2-26.7,58.4C328.6,413.1,343,385.9,343,385.9z"/>
<path class="st0" d="M254.8,344.4l70.7-36c0,0-0.1,0-0.1,0c40.9-23.9,68.4-68.2,68.4-119c0-14-2.1-27.5-6-40.2
	c-27.4,13.7-75.9,32.9-131.8,32.9s-104.4-19.2-131.8-32.9c-3.9,12.7-6,26.2-6,40.2c0,50.7,27.4,95,68.3,118.9L254.8,344.4z"/>
<path d="M255.4,154.5c59.7,0,112.3-25,131.3-36.2V92.6c25.9-9.8,40-22.4,40-36.2C426.8,25.3,350.3,0,255.9,0S84.6,25.3,84.6,56.4
	c0,13.8,15.3,26.4,39.5,36.2v25.6C144.8,129.4,195.9,154.5,255.4,154.5z M285.4,78.3c0,4.3-1,8.4-2.6,12.1h0.9
	c7.6,0,13.8,6.2,13.8,13.8s-6.2,13.8-13.8,13.8h-57c-7.6,0-13.8-6.2-13.8-13.8s6.2-13.8,13.8-13.8h2.6c-1.7-3.7-2.6-7.8-2.6-12.1
	c0-16.2,13.2-29.4,29.4-29.4S285.4,62.1,285.4,78.3z"/>
</svg>
