<?xml version="1.0" encoding="utf-8"?>
<!-- Generator: Adobe Illustrator 23.0.2, SVG Export Plug-In . SVG Version: 6.00 Build 0)  -->
<svg version="1.1" id="Capa_1" xmlns="http://www.w3.org/2000/svg" xmlns:xlink="http://www.w3.org/1999/xlink" x="0px" y="0px"
	 viewBox="0 0 512 512" style="enable-background:new 0 0 512 512;" xml:space="preserve">
<style type="text/css">
	.st0{fill:#0F87FF;}
</style>
<g>
	<path class="st0" d="M425.6,356l-77.8-37l-51.3,106.7l-25.4-69c-5.3,1-10.5,2.3-16,2.3c-5.5,0-10.8-1.3-16-2.3l-26.8,72.6
		l-52.3-109l-75.4,35.8C50.7,372.1,23,411.7,23,443.9V512h464.1v-68.1C487.2,411.7,459.4,372.1,425.6,356z M407.9,136.2
		C399.1,59.7,334,0,255.1,0c-78.9,0-144,59.7-152.8,136.2c-6.6,4.2-10.9,11.5-10.9,19.9v49.2c0,10,6.2,18.4,14.9,21.9
		c9.7,37.3,33.1,69.6,66.1,90.8c0.5,6.3,5.4,13,13.1,17c10.5,5.5,22.2,3.8,26.2-3.8c4-7.6-1.4-18.2-11.9-23.6
		c-6.5-3.4-13.2-3.7-18.6-2c-28.8-18.2-49.7-45.8-59.1-77.9c9.6-3,16.6-11.9,16.6-22.5v-10.3l0.9,4.3
		c14,62.7,60.3,119.9,115.4,119.9c56.4,0,103.5-59.8,116.3-124.2v10.3c0,1.7,0.2,3.3,0.5,4.9c2.2,10.7,11.7,18.8,23.2,18.8
		c13.1,0,23.7-10.6,23.7-23.7V156C418.8,147.7,414.4,140.4,407.9,136.2z M374.1,145.4c-7-65.4-57.5-100-119-100
		c-61.5,0-112,34.6-119,100c-2.5-4.9-6.6-8.9-11.7-11.1c-0.9-1.4-2.1-2.7-3.8-3.3c-0.7-0.3-1.4-0.3-2.1-0.3
		c11.1-65.5,68-115.5,136.6-115.5c69.3,0,126.7,51.1,136.9,117.6C384.1,133.7,377.5,138.6,374.1,145.4z"/>
</g>
<path d="M418.8,156v49.2c0,13.1-10.6,23.7-23.7,23.7c-11.4,0-20.9-8.1-23.2-18.8l-0.5-15.2l2.6-49.5c3.5-6.8,10-11.7,17.9-12.7
	C381.8,66.2,324.4,15.1,255.1,15.1c-68.6,0-125.5,50.1-136.6,115.5c0.7,0,1.4,0.1,2.1,0.3c1.7,0.6,3,1.9,3.8,3.3
	c5.1,2.2,9.2,6.2,11.7,11.1l2.7,49.5v10.3c0,10.6-7,19.5-16.6,22.5c9.4,32,30.3,59.7,59.1,77.9c5.3-1.8,12-1.4,18.6,2
	c10.5,5.5,15.8,16,11.9,23.6c-4,7.6-15.6,9.3-26.2,3.8c-7.7-4-12.6-10.8-13.1-17c-33-21.1-56.5-53.5-66.1-90.8
	c-8.7-3.5-14.9-12-14.9-21.9V156c0-8.3,4.3-15.6,10.9-19.9C111.2,59.7,176.3,0,255.1,0c78.8,0,144,59.7,152.8,136.2
	C414.4,140.4,418.8,147.7,418.8,156z"/>
</svg>
