<?xml version="1.0" encoding="utf-8"?>
<!-- Generator: Adobe Illustrator 21.0.0, SVG Export Plug-In . SVG Version: 6.00 Build 0)  -->
<svg version="1.1" id="Layer_1" xmlns="http://www.w3.org/2000/svg" xmlns:xlink="http://www.w3.org/1999/xlink" x="0px" y="0px"
	 width="480px" height="480px" viewBox="0 0 480 480" style="enable-background:new 0 0 480 480;" xml:space="preserve">
<style type="text/css">
	.st0{fill:#0f87ff;}
</style>
<g>
	<path class="st0" d="M400,0H48c-4.4,0-8,3.6-8,8v464c0,4.4,3.6,8,8,8h352c22.1,0,40-17.9,40-40V40C440,17.9,422.1,0,400,0z
		 M424,440c0,13.3-10.7,24-24,24H56V16h344c13.3,0,24,10.7,24,24V440z"/>
	<path class="st0" d="M139.8,255.4c0.1,0.1,0.1,0.3,0.2,0.4c0.1,0.1,0.2,0.2,0.3,0.3c24.2,30.2,60.9,47.8,99.7,47.8
		c38.8,0,75.4-17.6,99.6-47.9c0.1-0.1,0.2-0.1,0.3-0.3c0.1-0.1,0.1-0.3,0.2-0.4c37.1-46.5,37.1-112.4,0-158.9
		c-0.1-0.1-0.1-0.3-0.2-0.4c-0.1-0.1-0.2-0.2-0.3-0.3C315.4,65.6,278.7,48,240,48s-75.4,17.6-99.6,47.8c-0.1,0.1-0.2,0.2-0.3,0.3
		c-0.1,0.1-0.1,0.3-0.2,0.4C102.7,143,102.7,209,139.8,255.4z M148.2,112c6.1,3.9,12.4,7.2,19.1,10c-4.2,15-6.6,30.5-7.1,46h-31.8
		C129.8,147.9,136.7,128.5,148.2,112z M351.6,168h-31.8c-0.5-15.6-2.9-31.1-7.1-46.1c6.6-2.8,13-6.1,19.1-9.9
		C343.3,128.5,350.2,147.9,351.6,168z M331.8,240c-6.1-3.9-12.4-7.2-19.1-10c4.2-15,6.6-30.5,7.1-46h31.8
		C350.2,204.1,343.3,223.5,331.8,240z M248,184h55.8c-0.5,13.8-2.7,27.4-6.4,40.6c-16-4.8-32.6-7.6-49.4-8.1V184z M248,168v-32.3
		c16.7-0.6,33.3-3.4,49.3-8.3c3.7,13.2,5.9,26.9,6.4,40.6H248z M232,168h-55.8c0.5-13.7,2.7-27.4,6.4-40.6c16,4.9,32.6,7.7,49.4,8.3
		V168z M232,184v32.5c-16.7,0.5-33.3,3.3-49.3,8.1c-3.7-13.3-5.9-26.9-6.4-40.6H232z M232,232.5V287c-18-4.1-34-22-44.2-47.2
		C202.2,235.5,217,233,232,232.5z M248,287v-54.5c15,0.5,29.8,3,44.2,7.3C282,265,266,282.8,248,287z M248,119.5V65
		c18,4.1,34,22,44.2,47.2C277.8,116.5,263,119,248,119.5z M232,65v54.5c-15-0.5-29.8-3-44.2-7.3C198,87,214,69.2,232,65z M160.2,184
		c0.5,15.6,2.9,31.1,7.1,46.1c-6.6,2.8-13,6.1-19.1,9.9c-11.6-16.5-18.4-35.9-19.8-56H160.2z M158.4,252.5c4.5-2.8,9.2-5.2,14-7.3
		c4.2,10.9,9.9,21.2,16.9,30.5C177.8,269.9,167.3,262,158.4,252.5z M290.6,275.8c7.1-9.3,12.8-19.6,16.9-30.5
		c4.8,2.1,9.5,4.5,14,7.3C312.7,262,302.2,269.9,290.6,275.8z M321.6,99.5c-4.5,2.8-9.2,5.2-14,7.3c-4.2-10.9-9.9-21.2-17-30.5
		C302.2,82.1,312.7,90,321.6,99.5z M189.4,76.2c-7.1,9.3-12.8,19.6-16.9,30.5c-4.8-2.1-9.5-4.5-14-7.3
		C167.3,90,177.8,82.1,189.4,76.2z"/>
	<path class="st0" d="M368,336H112c-4.4,0-8,3.6-8,8v80c0,4.4,3.6,8,8,8h256c4.4,0,8-3.6,8-8v-80C376,339.6,372.4,336,368,336z
		 M360,416H120v-64h240V416z"/>
</g>
</svg>
