<svg height="512pt" viewBox="0 -16 512 512" width="512pt" xmlns="http://www.w3.org/2000/svg"><path d="m31 375c0 41.351562 33.648438 75 75 75h77.761719c6.214843 17.421875 22.707031 30 42.238281 30h30c24.8125 0 45-20.1875 45-45s-20.1875-45-45-45h-30c-19.53125 0-36.023438 12.578125-42.238281 30h-77.761719c-24.8125 0-45-20.1875-45-45v-195h-61v150h31zm0 0"/><path d="m256 0c-15.625 0-30.679688 2.3125-45 6.359375v53.640625h90v-53.640625c-14.320312-4.046875-29.375-6.359375-45-6.359375zm0 0"/><path d="m331 18.128906v71.871094h-150v-71.871094c-53.40625 27.300782-90 82.714844-90 146.871094v40.199219c107.101562-31.5 222.898438-31.5 330 0v-40.199219c0-64.15625-36.59375-119.570312-90-146.871094zm0 0"/><path d="m451 480h30v-150h31v-150h-61zm0 0"/><path d="m421 338.398438v-102.597657c-106.800781-33.300781-223.199219-33.300781-330 0v102.597657c26.699219 11.402343 55.199219 18.601562 84.300781 20.699218l29.101563 2.402344 30.898437-61.5h41.398438l30.898437 61.5 29.101563-2.402344c29.398437-2.097656 57.601562-9.296875 84.300781-20.699218zm0 0"/></svg>