<?xml version="1.0" encoding="utf-8"?>
<!-- Generator: Adobe Illustrator 23.0.2, SVG Export Plug-In . SVG Version: 6.00 Build 0)  -->
<svg version="1.1" id="Capa_1" xmlns="http://www.w3.org/2000/svg" xmlns:xlink="http://www.w3.org/1999/xlink" x="0px" y="0px"
	 viewBox="0 0 512 512" style="enable-background:new 0 0 512 512;" xml:space="preserve">
<style type="text/css">
	.st0{fill:#0F87FF;}
</style>
<g>
	<g>
		<circle cx="256" cy="64" r="64"/>
	</g>
</g>
<g>
	<g>
		<path d="M351.9,302l-14.5-113.2c-1.6-16.4-15.3-28.8-31.8-28.8H288c-4.3,0-8.3,1.7-11.3,4.7L256,185.3l-20.7-20.7
			c-3-3-7.1-4.7-11.3-4.7h-17.5c-16.5,0-30.2,12.4-31.8,28.4L160.1,302c-0.6,4.5,0.8,9.2,3.9,12.6c3,3.5,7.4,5.4,12,5.4h17.3
			l13.4,163.2c1.6,16.4,15.3,28.8,31.8,28.8h35c16.5,0,30.2-12.4,31.9-29.1L318.8,320H336c4.6,0,9-2,12-5.4
			C351.1,311.1,352.5,306.5,351.9,302z"/>
	</g>
</g>
<g>
	<g>
		<circle class="st0" cx="416" cy="64" r="64"/>
	</g>
</g>
<g>
	<g>
		<path class="st0" d="M96,0C60.7,0,32,28.7,32,64s28.7,64,64,64c35.3,0,64-28.7,64-64S131.3,0,96,0z"/>
	</g>
</g>
<g>
	<g>
		<path class="st0" d="M511.9,302l-14.5-113.1c-1.6-16.4-15.3-28.8-31.8-28.8H448c-4.3,0-8.3,1.7-11.3,4.7L416,185.3l-20.7-20.7
			c-3-3-7.1-4.7-11.3-4.7h-17.5c-2,0-3.8,0.7-5.7,1.1c4.1,7.3,7.4,15.2,8.3,24.1l14.5,112.8c1.8,13.7-2.5,27.6-11.7,38
			c-4.4,5-9.9,8.5-15.9,11.3l10.6,104.1c1.6,16.4,15.3,28.8,31.8,28.8h35c16.5,0,30.2-12.4,31.9-29.1L478.8,320H496
			c4.6,0,9-2,12-5.4C511.1,311.1,512.5,306.5,511.9,302z"/>
	</g>
</g>
<g>
	<g>
		<path class="st0" d="M140,335.7c-9.1-10.3-13.3-24.1-11.6-37.7l14.6-113.6c0.8-8.5,4-16.2,8-23.3c-1.8-0.3-3.5-1-5.4-1H128
			c-4.3,0-8.3,1.7-11.3,4.7L96,185.3l-20.7-20.7c-3-3-7.1-4.7-11.3-4.7H46.5c-16.5,0-30.2,12.4-31.8,28.4L0.1,302
			c-0.6,4.5,0.8,9.2,3.9,12.6c3,3.5,7.4,5.4,12,5.4h17.3l13.4,131.2C48.3,467.6,62,480,78.5,480h35c16.5,0,30.2-12.4,31.9-29.1
			L156,347.1C150,344.3,144.4,340.7,140,335.7z"/>
	</g>
</g>
</svg>
