<?xml version="1.0" encoding="utf-8"?>
<!-- Generator: Adobe Illustrator 21.0.0, SVG Export Plug-In . SVG Version: 6.00 Build 0)  -->
<svg version="1.1" id="Capa_1" xmlns="http://www.w3.org/2000/svg" xmlns:xlink="http://www.w3.org/1999/xlink" x="0px" y="0px"
	 width="33px" height="33px" viewBox="0 0 33 33" style="enable-background:new 0 0 33 33;" xml:space="preserve">
<style type="text/css">
	.st0{fill:#0f87ff;stroke:#0f87ff;stroke-width:0.5;stroke-miterlimit:10;}
</style>
<g>
	<path class="st0" d="M16.5,33C7.4,33,0,25.6,0,16.5S7.4,0,16.5,0S33,7.4,33,16.5S25.6,33,16.5,33z M16.5,1C8,1,1,8,1,16.5
		S8,32,16.5,32S32,25,32,16.5S25,1,16.5,1z"/>
	<path class="st0" d="M16.5,33c-3.9,0-7.6-1.4-10.6-3.9c-0.1-0.1-0.2-0.3-0.2-0.5s0.1-0.3,0.3-0.4c0.4-0.2,0.9-0.4,1.4-0.6
		c2.6-1,3.9-1.8,4.5-3c-4.9-1.2-5.5-4.3-5.5-4.4c0-0.2,0.1-0.4,0.2-0.5C6.7,19.8,9,18.2,9,14.1C9,9.6,9.9,5,16.5,5S24,9.6,24,14.1
		c0,4.1,2.4,5.7,2.5,5.8c0.2,0.1,0.3,0.3,0.2,0.5c0,0.1-0.6,3.2-5.5,4.4c0.6,1.2,1.9,2,4.5,3c0.5,0.2,1,0.4,1.4,0.6
		c0.2,0.1,0.3,0.2,0.3,0.4s0,0.3-0.2,0.5C24.1,31.6,20.4,33,16.5,33z M7.2,28.9c2.7,2,6,3.1,9.3,3.1c3.4,0,6.6-1.1,9.3-3.1
		c-0.2-0.1-0.4-0.1-0.5-0.2c-3.3-1.2-4.8-2.3-5.3-4.1c0-0.1,0-0.3,0.1-0.4c0.1-0.1,0.2-0.2,0.3-0.2c3.9-0.8,5-2.7,5.2-3.4
		c-0.7-0.6-2.6-2.6-2.6-6.4C23,9.2,21.9,6,16.5,6S10,9.2,10,14.1c0,3.8-1.9,5.8-2.6,6.4c0.3,0.7,1.3,2.6,5.2,3.4
		c0.1,0,0.3,0.1,0.3,0.2c0.1,0.1,0.1,0.3,0.1,0.4c-0.5,1.8-2,2.9-5.3,4.1l0,0C7.5,28.8,7.4,28.8,7.2,28.9z"/>
</g>
</svg>
